# xmcd
#
# Track frame offsets:
#	150
#	18108
#	44797
#	73713
#	92118
#	104241
#	122799
#	147666
#	167700
#
# Disc length: 2646 seconds
# Revision: 1
# Processed by: cddbd v1.5.2PL0 Copyright (c) Steve Scherf et al.
# Submitted via: dBpowerAMP V12.0
#
DISCID=890a5409
DTITLE=Landon Spradlin - No More Blue Mondays
DYEAR=2016
DGENRE=Blues
TTITLE0=I've Never Been To Seminary
TTITLE1=No More Blue Mondays
TTITLE2=1st Fruits
TTITLE3=Drift Away
TTITLE4=I Got Jesus' Name
TTITLE5=My God
TTITLE6=He Is There
TTITLE7=My Friend Jesus
TTITLE8=My Help
EXTD=
EXTT0=
EXTT1=
EXTT2=
EXTT3=
EXTT4=
EXTT5=
EXTT6=
EXTT7=
EXTT8=
PLAYORDER=
